PathFileType	4	(X/Y/Z)	pose_F01_0-87.trc
DataRate	CameraRate	NumFrames	NumMarkers	Units	OrigDataRate	OrigDataStartFrame	OrigNumFrames
30	30	10	21	m	30	0	87
Frame#	Time	CHip			RHip			RKnee			RAnkle			RBigToe			RSmallToe			RHeel			LHip			LKnee			LAnkle			LBigToe			LSmallToe			LHeel			Neck			Nose			RShoulder			RElbow			RWrist			LShoulder			LElbow			LWrist			
		X1	Y1	Z1	X2	Y2	Z2	X3	Y3	Z3	X4	Y4	Z4	X5	Y5	Z5	X6	Y6	Z6	X7	Y7	Z7	X8	Y8	Z8	X9	Y9	Z9	X10	Y10	Z10	X11	Y11	Z11	X12	Y12	Z12	X13	Y13	Z13	X14	Y14	Z14	X15	Y15	Z15	X16	Y16	Z16	X17	Y17	Z17	X18	Y18	Z18	X19	Y19	Z19	X20	Y20	Z20	X21	Y21	Z21	
0	0.0	-0.2263250571587026	1.8548175571730603	-0.6131467370793953	-0.24244244368747295	1.8554070719681004	-0.5443327873758341	-0.2520824260776379	1.6941059457388163	-0.47370062223056236				-0.23013690471919018	1.5431238589551985	-0.5940767043332305							-0.2098513096640945	1.860306036577537	-0.6726729156221338	-0.21497738319267679	1.697444352979571	-0.6484276766498994	-0.2172230135437706	1.5568828607065648	-0.630115056764671	-0.23537809624041106	1.5153656454700293	-0.6576165351794654	-0.22497803325152801	1.5239825554179771	-0.6736735212277541	-0.2178848254098267	1.5494322934446443	-0.6029075098325027	-0.21825230580880525	2.0064300671987927	-0.6331490496121805	-0.22779512184891082	2.0670255727535345	-0.6401982408540324	-0.2400349650457697	1.996680515412935	-0.538810944162488	1.0172349490108492	2.003606657755009	-1.871535227597458	-0.2484660808859723	1.9958112130802426	-0.6009334523945449	-0.19514041990404127	2.01252314712939	-0.7216087678853782	-1.2908442126154895	1.8620445164031052	0.3466849726982034	-0.22985828861040494	2.034981582856246	-0.6603748152388805
1	0.03333333333333333	-0.22562863462932833	1.852042789807265	-0.6179584303046001	-0.24266814963002237	1.8525720245061243	-0.5527210707545087	-0.2520824260776379	1.6941059457388163	-0.47370062223056236				-0.23013690471919018	1.5431238589551985	-0.5940767043332305							-0.20897045336075942	1.8556535201421664	-0.6774410581147562	-0.21488430146492127	1.6998419718864317	-0.6488730084530259	-0.21722065092572646	1.5599083339108037	-0.6304503378591267	-0.23590448926570146	1.5160174337755967	-0.6618415152518615	-0.22378515202925825	1.524428912683035	-0.6790672512783542	-0.21584709430746388	1.5472893716069644	-0.6044059353759643	-0.21608649935136112	2.00494698723042	-0.635077101996021	-0.2255868429152426	2.072302831854544	-0.6438534379170606	-0.2368714911791439	1.9979009961332628	-0.5463422410816315	-0.27247589923077753	1.9339170992656367	-0.5225861957907757	-0.24802901568733882	2.0082329027236057	-0.6027383637344477	-0.19118033394664125	2.010771563786674	-0.7174917700037652	-1.2838173867896396	1.8640283848224437	0.3332989152655225	-0.23142460138645002	2.030994460681166	-0.6742565787509541
2	0.06666666666666667	-0.22493221209995407	1.84926802244147	-0.6227701235298049	-0.2428938555725718	1.8497369770441483	-0.5611093541331833	-0.2520824260776379	1.6941059457388163	-0.47370062223056236				-0.23013690471919018	1.5431238589551985	-0.5940767043332305							-0.20808959705742436	1.8510010037067959	-0.6822092006073786	-0.21479121973716575	1.7022395907932923	-0.6493183402561523	-0.2172182883076823	1.5629338071150427	-0.6307856189535824	-0.23643088229099185	1.5166692220811642	-0.6660664953242577	-0.22259227080698848	1.524875269948093	-0.6844609813289543	-0.21380936320510105	1.5451464497692846	-0.6059043609194259	-0.213920692893917	2.0034639072620473	-0.6370051543798614	-0.2233785639815744	2.0775800909555535	-0.6475086349800888	-0.2337080173125181	1.9991214768535905	-0.5538735380007751	-1.562186747472404	1.864227540776264	0.8263628360159068	-0.24759195048870533	2.0206545923669688	-0.6045432750743505	-0.18722024798924122	2.009019980443958	-0.7133747721221522	-1.2767905609637897	1.8660122532417822	0.3199128578328416	-0.2329909141624951	2.0270073385060856	-0.6881383422630277
3	0.1	-0.22235582787268976	1.8541678214040889	-0.6257650835701045	-0.24112594869643386	1.852153837734979	-0.5669820805206961	-0.2520824260776379	1.6941059457388163	-0.47370062223056236				-0.23013690471919018	1.5431238589551985	-0.5940767043332305							-0.20791605965973206	1.855564223628652	-0.6945812729726976	-0.21243336288383963	1.7034101734101013	-0.6519184646776713	-0.21729792892866762	1.5637993922874467	-0.6303238343143246	-0.2364913810646784	1.5167242595977022	-0.6660332791679291	-0.22474318109360353	1.5246182696027342	-0.682341929704107	-0.21177163210273822	1.5430035279316048	-0.6074027864628875	-0.21458331235321854	2.007413182588232	-0.6405216415969249	-0.2210726547391418	2.0810830949229593	-0.6497073061209111	-0.2362704457318734	2.003001178985603	-0.5548006085663548	-1.5407196314401053	1.8686220179974737	0.7797839989589356	-0.2434694356961655	2.0278621616379437	-0.620088465722279	-0.18484435346848843	2.0117779764592822	-0.7156593233595	-0.21800320552523655	1.9661943158808437	-0.7538746373925498	-0.22656048359084197	2.034422590090121	-0.6874728062812068
4	0.13333333333333333	-0.2242331249266414	1.8483684092211152	-0.623034649105808	-0.24296316530992282	1.8466365198636385	-0.5642124131460811	-0.2520824260776379	1.6941059457388163	-0.47370062223056236				-0.23013690471919018	1.5431238589551985	-0.5940767043332305							-0.20975615210219428	1.8514450885823062	-0.6920281995465078	-0.2126979092817407	1.7021688819763598	-0.6515173071182361	-0.2183075714546828	1.5614039990555852	-0.632978693731991	-0.2363731579749655	1.516236909713835	-0.666076530254081	-0.2221946860246608	1.5255665124784445	-0.685105679513025	-0.21193282602761804	1.5436177518550938	-0.6076712700522312	-0.2123671252017024	2.0067453804070317	-0.6423848778153041	-0.21958220626837682	2.072517028135134	-0.6515369910111093	-0.23409950767280227	2.0039750409206216	-0.5570226138638572	-1.5236503693590344	1.867423193833352	0.7485356952250178	-0.23900237052508283	2.0213468132635257	-0.6219188620984213	-0.18568305343648603	2.0113521433814148	-0.7186440814389657	-0.21647107601384535	1.9682167969884952	-0.7591609196057316	-0.22074947719176308	2.028566346838626	-0.6950596868546298
5	0.16666666666666666	-0.2245349227219327	1.848172219190645	-0.6228283631927716	-0.24362397918811174	1.846925778704212	-0.5639179719504332	-0.2520824260776379	1.6941059457388163	-0.47370062223056236				-0.23013690471919018	1.5431238589551985	-0.5940767043332305							-0.20848408860978213	1.8499615786071533	-0.6854615606343681	-0.21310705271881045	1.701864069072582	-0.6509057025644612	-0.2174730132321733	1.5615426585644738	-0.6298368808411543	-0.23648952621465658	1.5164714155772425	-0.6660306656236694	-0.22559911471035302	1.5242491966665073	-0.6854609693204616	-0.21394024965846112	1.5430351651720482	-0.605416258585493	-0.21449436357507115	2.0055608553496675	-0.6401185206163897	-0.22115326910146368	2.0790764726604887	-0.6493956118243047	-0.23323270318319456	2.003928129742128	-0.5537998993465653	-1.5106601248103475	1.8668810142696222	0.7227612062469899	-0.24048380626479463	2.0245840219045776	-0.627518348654288	-0.18494032615463582	2.010427553251649	-0.7156898514945738	-1.2563976632498834	1.8683833280863076	0.2887168519772016	-0.22438697470868485	2.0286879782721123	-0.697964221505419
6	0.2	-0.2253364699799618	1.8412910956257904	-0.6170320746808154	-0.24231277780035554	1.8411880496419561	-0.5516008614202689	-0.2520824260776379	1.6941059457388163	-0.47370062223056236				-0.23013690471919018	1.5431238589551985	-0.5940767043332305							-0.20841800306206046	1.8454502601593874	-0.6766342650896273	-0.2151122685240806	1.6981653018894356	-0.6484301390129633	-0.218373287188486	1.5586769588759544	-0.6326876133251452	-0.23414253492141543	1.5161022665848525	-0.668202472097854	-0.22329553078314904	1.5238529264450877	-0.6876303813783967	-0.21249139592287938	1.5433958622927386	-0.6071217292089928	-0.212810932969167	2.0055236503402583	-0.6338274274279849	-0.2235483330188825	2.0748214924965525	-0.6469272132402408	-0.2353155835859859	2.0032980733678474	-0.551445529186467	-1.50492455519872	1.8670907133926649	0.7104608900958613	-0.24136604961887811	2.0263083231685735	-0.630944247076718	-0.18703756118051681	2.010963567650283	-0.7132843403291401	-1.2605559918617828	1.8686272266340187	0.29840738132160777	-0.22120050268585864	2.0285745594782965	-0.6966760817056601
7	0.23333333333333334	-0.22848327125482704	1.8440061341774991	-0.6092721517949782	-0.24135476513965382	1.8414859654842566	-0.5397996487848261	-0.2520824260776379	1.6941059457388163	-0.47370062223056236				-0.23013690471919018	1.5431238589551985	-0.5940767043332305							-0.20861394753244908	1.8459695932059208	-0.6682105054797028	-0.21405923826032747	1.696318612099076	-0.6453501758248552	-0.2184573359837491	1.5588119718429532	-0.6326225315839045	-0.2366321372211955	1.5172517322423191	-0.6660093584814502	-0.2247997313857572	1.5247291092465711	-0.6823672548056569	-0.21468211579201613	1.5434790689554905	-0.6048896676821188	-0.21231144725149395	2.0044844827455806	-0.6222128276545378	-0.225208381982055	2.0663017611499566	-0.6413806651616822	-0.23447738692533332	2.0030231005400894	-0.53982158654941	-1.5137180103887766	1.8689532313993766	0.7261136425716822	-0.24452058467372154	2.0208405269256295	-0.6401376615259466	-0.19070448881869262	2.0065852263049075	-0.7053730571799404	-0.20947114678303233	1.9677946149473748	-0.7544240722946748	-0.22538226998041183	2.0231527971701833	-0.7003000672584706
8	0.26666666666666666	-0.22686842167312632	1.846798416882293	-0.5943315091383248	-0.242803825358186	1.8404973973709182	-0.5283177414390138	-0.2520824260776379	1.6941059457388163	-0.47370062223056236				-0.23013690471919018	1.5431238589551985	-0.5940767043332305							-0.20983923724712625	1.8496927448881662	-0.662807106133485	-0.212167588767759	1.7019626033842783	-0.6394910357360273	-0.21752600687862708	1.559011316570748	-0.6296087840786957	-0.23566225339086613	1.5148154514898504	-0.662269948179701	-0.22244215927007008	1.5243052706113962	-0.6845036900638193	-0.21281567328451648	1.5423908476990271	-0.6064944601267159	-0.21786141436536027	2.001931405874102	-0.6123526275778046	-0.22506171430387936	2.0708306526004603	-0.6420304585890989	-0.23877774516769965	2.00050323192182	-0.5268997928123816	-1.518180775697299	1.8673455204974916	0.7368066423630388	-0.2469251898434571	2.0227774426526013	-0.6208696958604362	-0.19428053818882673	2.006764462531357	-0.6975723312593864	-1.283486829977805	1.8673939122955239	0.3425878460165528	-0.22839818521432373	2.020501440690155	-0.6898487872372274
9	0.3	-0.2280714168385468	1.8452504875585598	-0.5816550463749377	-0.24425288557671818	1.8395088292575799	-0.5168358340932013	-0.2520824260776379	1.6941059457388163	-0.47370062223056236				-0.23013690471919018	1.5431238589551985	-0.5940767043332305							-0.21044871324850908	1.8480810427254946	-0.6453712887490374	-0.21850911798447994	1.7010039780194357	-0.6327832839913247	-0.21769075201586396	1.560019388002174	-0.6292707014359358	-0.2335775243012699	1.5183695868299096	-0.6646481345438076	-0.2224334130039797	1.5274526278887746	-0.6847697346512338	-0.21255166756158947	1.5437427578765845	-0.60704750934171	-0.22232699374113984	2.0014352934858555	-0.5994139616368223	-0.2280057922068286	2.0756897081476113	-0.6347377955419424	-0.2438981790259256	1.99972195020379	-0.5169486200261348	-1.539610821747095	1.8650024815335202	0.7770829791687757	-0.24711476586620004	2.020945297488874	-0.6209057711935053	-0.1927827142662681	2.0048973288439154	-0.6716174507252014	-1.280022781917005	1.8627753055936656	0.34479422114321534	-0.22376492866025036	2.0256821508943332	-0.6852907700533208
